<mxfile host="app.diagrams.net" modified="2024-05-08T23:56:26.493Z" agent="Mozilla/5.0 (Windows NT 10.0; Win64; x64) AppleWebKit/537.36 (KHTML, like Gecko) Chrome/124.0.0.0 Safari/537.36 Edg/124.0.0.0" etag="IVpydTnW4_NHIQM4sL4L" version="24.3.1" type="device">
  <diagram name="Página-1" id="pclHzJrURgKHpWUltsY_">
    <mxGraphModel dx="1631" dy="884" grid="1" gridSize="10" guides="1" tooltips="1" connect="1" arrows="1" fold="1" page="1" pageScale="1" pageWidth="827" pageHeight="1169" math="0" shadow="0">
      <root>
        <mxCell id="0" />
        <mxCell id="1" parent="0" />
        <mxCell id="5f6yyHdZbN5mxAPJtJQ0-4" value="Requisitos&lt;div&gt;externos&lt;/div&gt;" style="rounded=0;whiteSpace=wrap;html=1;" vertex="1" parent="1">
          <mxGeometry x="280" y="40" width="120" height="80" as="geometry" />
        </mxCell>
        <mxCell id="5f6yyHdZbN5mxAPJtJQ0-11" value="Requisitos de interoperabilidade" style="rounded=0;whiteSpace=wrap;html=1;" vertex="1" parent="1">
          <mxGeometry x="120" y="220" width="120" height="80" as="geometry" />
        </mxCell>
        <mxCell id="5f6yyHdZbN5mxAPJtJQ0-12" value="Requisitos éticos" style="rounded=0;whiteSpace=wrap;html=1;" vertex="1" parent="1">
          <mxGeometry x="280" y="220" width="120" height="80" as="geometry" />
        </mxCell>
        <mxCell id="5f6yyHdZbN5mxAPJtJQ0-25" value="Requisitos legais" style="rounded=0;whiteSpace=wrap;html=1;" vertex="1" parent="1">
          <mxGeometry x="441" y="220" width="120" height="80" as="geometry" />
        </mxCell>
        <mxCell id="5f6yyHdZbN5mxAPJtJQ0-26" style="rounded=0;orthogonalLoop=1;jettySize=auto;html=1;endArrow=none;endFill=0;strokeWidth=3;edgeStyle=orthogonalEdgeStyle;exitX=0.5;exitY=1;exitDx=0;exitDy=0;" edge="1" parent="1" source="5f6yyHdZbN5mxAPJtJQ0-4" target="5f6yyHdZbN5mxAPJtJQ0-12">
          <mxGeometry relative="1" as="geometry">
            <mxPoint x="60" y="140" as="sourcePoint" />
            <mxPoint x="367" y="52" as="targetPoint" />
          </mxGeometry>
        </mxCell>
        <mxCell id="5f6yyHdZbN5mxAPJtJQ0-27" style="rounded=0;orthogonalLoop=1;jettySize=auto;html=1;endArrow=none;endFill=0;strokeWidth=3;exitX=0.5;exitY=1;exitDx=0;exitDy=0;entryX=0.5;entryY=0;entryDx=0;entryDy=0;edgeStyle=orthogonalEdgeStyle;" edge="1" parent="1" source="5f6yyHdZbN5mxAPJtJQ0-4" target="5f6yyHdZbN5mxAPJtJQ0-25">
          <mxGeometry relative="1" as="geometry">
            <mxPoint x="-120" y="-20" as="sourcePoint" />
            <mxPoint x="377" y="62" as="targetPoint" />
          </mxGeometry>
        </mxCell>
        <mxCell id="5f6yyHdZbN5mxAPJtJQ0-28" style="rounded=0;orthogonalLoop=1;jettySize=auto;html=1;endArrow=none;endFill=0;strokeWidth=3;exitX=0.5;exitY=1;exitDx=0;exitDy=0;entryX=0.5;entryY=0;entryDx=0;entryDy=0;edgeStyle=orthogonalEdgeStyle;" edge="1" parent="1" source="5f6yyHdZbN5mxAPJtJQ0-4" target="5f6yyHdZbN5mxAPJtJQ0-11">
          <mxGeometry relative="1" as="geometry">
            <mxPoint x="-110" y="-10" as="sourcePoint" />
            <mxPoint x="387" y="72" as="targetPoint" />
          </mxGeometry>
        </mxCell>
        <mxCell id="5f6yyHdZbN5mxAPJtJQ0-33" value="Requisitos de privacidade" style="rounded=0;whiteSpace=wrap;html=1;" vertex="1" parent="1">
          <mxGeometry x="360.5" y="385" width="120" height="80" as="geometry" />
        </mxCell>
        <mxCell id="5f6yyHdZbN5mxAPJtJQ0-34" value="Requisitos de segurança" style="rounded=0;whiteSpace=wrap;html=1;" vertex="1" parent="1">
          <mxGeometry x="521.5" y="385" width="120" height="80" as="geometry" />
        </mxCell>
        <mxCell id="5f6yyHdZbN5mxAPJtJQ0-35" style="rounded=0;orthogonalLoop=1;jettySize=auto;html=1;endArrow=none;endFill=0;strokeWidth=3;exitX=0.5;exitY=1;exitDx=0;exitDy=0;edgeStyle=orthogonalEdgeStyle;" edge="1" parent="1" source="5f6yyHdZbN5mxAPJtJQ0-25" target="5f6yyHdZbN5mxAPJtJQ0-34">
          <mxGeometry relative="1" as="geometry">
            <mxPoint x="350" y="130" as="sourcePoint" />
            <mxPoint x="511" y="230" as="targetPoint" />
          </mxGeometry>
        </mxCell>
        <mxCell id="5f6yyHdZbN5mxAPJtJQ0-36" style="rounded=0;orthogonalLoop=1;jettySize=auto;html=1;endArrow=none;endFill=0;strokeWidth=3;exitX=0.5;exitY=1;exitDx=0;exitDy=0;entryX=0.5;entryY=0;entryDx=0;entryDy=0;edgeStyle=orthogonalEdgeStyle;" edge="1" parent="1" source="5f6yyHdZbN5mxAPJtJQ0-25" target="5f6yyHdZbN5mxAPJtJQ0-33">
          <mxGeometry relative="1" as="geometry">
            <mxPoint x="360" y="140" as="sourcePoint" />
            <mxPoint x="521" y="240" as="targetPoint" />
          </mxGeometry>
        </mxCell>
      </root>
    </mxGraphModel>
  </diagram>
</mxfile>
